HIERARCHY
ROOT Hips
{
	OFFSET	0.00	0.00	0.00
	CHANNELS 6 Xposition Yposition Zposition Zrotation Xrotation Yrotation
	JOINT LeftUpLeg
	{
		OFFSET	 0.126116	-0.065224	 0.014019
		CHANNELS 3 Zrotation Xrotation Yrotation
		JOINT LeftLeg
		{
			OFFSET	 0.000000	 0.569914	 0.000000
			CHANNELS 3 Zrotation Xrotation Yrotation
			JOINT LeftFoot
			{
				OFFSET	 0.000000	 0.544423	 0.000000
				CHANNELS 3 Zrotation Xrotation Yrotation
				JOINT LeftToeBase
				{
					OFFSET	 0.000000	 0.207117	 0.000000
					CHANNELS 3 Zrotation Xrotation Yrotation
					End Site
					{
						OFFSET	 0.000000	 0.207117	 0.000000
					}
				}
			}
		}
	}
	JOINT RightUpLeg
	{
		OFFSET	-0.124023	-0.065224	 0.008373
		CHANNELS 3 Zrotation Xrotation Yrotation
		JOINT RightLeg
		{
			OFFSET	 0.000000	 0.570047	 0.000000
			CHANNELS 3 Zrotation Xrotation Yrotation
			JOINT RightFoot
			{
				OFFSET	 0.000000	 0.544354	 0.000000
				CHANNELS 3 Zrotation Xrotation Yrotation
				JOINT RightToeBase
				{
					OFFSET	 0.000000	 0.207540	 0.000000
					CHANNELS 3 Zrotation Xrotation Yrotation
					End Site
					{
						OFFSET	 0.000000	 0.207540	 0.000000
					}
				}
			}
		}
	}
	JOINT Spine
	{
		OFFSET	 0.000184	 0.117403	 0.007763
		CHANNELS 3 Zrotation Xrotation Yrotation
		JOINT Spine1
		{
			OFFSET	 0.000000	 0.137269	 0.000000
			CHANNELS 3 Zrotation Xrotation Yrotation
			JOINT Spine2
			{
				OFFSET	 0.000000	 0.156879	 0.000000
				CHANNELS 3 Zrotation Xrotation Yrotation
				JOINT LeftShoulder
				{
					OFFSET	 0.080501	 0.160143	 0.002496
					CHANNELS 3 Zrotation Xrotation Yrotation
					JOINT LeftArm
					{
						OFFSET	 0.000000	 0.164363	 0.000000
						CHANNELS 3 Zrotation Xrotation Yrotation
						JOINT LeftForeArm
						{
							OFFSET	 0.000000	 0.364576	 0.000000
							CHANNELS 3 Zrotation Xrotation Yrotation
							JOINT LeftHand
							{
								OFFSET	 0.000000	 0.360812	 0.000000
								CHANNELS 3 Zrotation Xrotation Yrotation
								JOINT LeftHandIndex1
								{
									OFFSET	 0.000000	 0.086006	 0.000000
									CHANNELS 3 Zrotation Xrotation Yrotation
									JOINT LeftHandIndex2
									{
										OFFSET	 0.000000	 0.047237	 0.000000
										CHANNELS 3 Zrotation Xrotation Yrotation
										JOINT LeftHandIndex3
										{
											OFFSET	-0.004284	 0.038165	 0.000551
											CHANNELS 3 Zrotation Xrotation Yrotation
											End Site
											{
												OFFSET	-0.004284	 0.038165	 0.000551
											}
										}
									}
								}
							}
						}
					}
				}
				JOINT Neck
				{
					OFFSET	 0.000000	 0.176489	 0.000000
					CHANNELS 3 Zrotation Xrotation Yrotation
					JOINT Head
					{
						OFFSET	 0.000000	 0.077941	 0.001747
						CHANNELS 3 Zrotation Xrotation Yrotation
						End Site
						{
							OFFSET	 0.000000	 0.077941	 0.001747
						}
					}
				}
				JOINT RightShoulder
				{
					OFFSET	-0.080363	 0.159706	-0.000306
					CHANNELS 3 Zrotation Xrotation Yrotation
					JOINT RightArm
					{
						OFFSET	 0.000000	 0.164196	 0.000000
						CHANNELS 3 Zrotation Xrotation Yrotation
						JOINT RightForeArm
						{
							OFFSET	 0.000000	 0.365611	 0.000000
							CHANNELS 3 Zrotation Xrotation Yrotation
							JOINT RightHand
							{
								OFFSET	 0.000000	 0.360648	 0.000000
								CHANNELS 3 Zrotation Xrotation Yrotation
								JOINT RightHandIndex1
								{
									OFFSET	 0.000000	 0.069977	 0.000000
									CHANNELS 3 Zrotation Xrotation Yrotation
									JOINT RightHandIndex2
									{
										OFFSET	 0.000000	 0.052305	 0.000000
										CHANNELS 3 Zrotation Xrotation Yrotation
										JOINT RightHandIndex3
										{
											OFFSET	 0.009002	 0.042196	 0.000782
											CHANNELS 3 Zrotation Xrotation Yrotation
											End Site
											{
												OFFSET	 0.009002	 0.042196	 0.000782
											}
										}
									}
								}
							}
						}
					}
				}
			}
		}
	}
}
MOTION
Frames:    7
Frame Time: 0.03333334
 0.479807	 0.999077	 0.619859	-8.727132	-40.178770	-179.440000	 58.122590	 86.263890	 101.963500	 42.551200	-68.553040	 49.283830	 84.068140	 63.440120	-70.851060	 1.292262	 28.425850	-2.713146	 37.592590	 81.490680	 142.782500	-40.022740	-73.359680	-47.015780	-75.432380	 56.969920	 60.767160	-1.288183	 28.361890	 2.710176	-1.860518	 13.531050	 3.073026	-1.356942	 9.898108	-1.926080	-1.440574	 9.326486	-1.199410	-126.749100	 31.172420	 108.037500	 57.627800	-5.819107	 11.970800	 20.744470	-10.167000	-71.685070	 11.259940	-9.199633	 17.268060	-6.580301	 5.266122	 0.000000	 0.000000	 0.000000	 0.000000	 0.000000	 0.000000	 0.000000	 10.973310	 42.378960	-4.900284	-6.373128	-49.356210	-0.836554	 126.936000	 29.924220	-107.949700	-54.136280	 0.789737	 10.207090	-50.172660	 4.855904	 29.563850	-2.563478	-21.906620	-14.332640	 15.208500	 5.323790	 0.000000	 0.000000	 0.000000	 0.000000	 0.000000	 0.000000	 0.000000
 0.473431	 0.963292	 0.632169	-10.001320	-38.549520	 179.012500	 31.751810	 85.391980	 126.773200	 52.534810	-71.494630	 57.847020	 87.380370	 64.144450	-74.495120	 1.292262	 28.425850	-2.713146	 23.955060	 79.816030	 154.046800	-53.079400	-76.481640	-59.820740	-74.699510	 56.847680	 61.247760	-1.288183	 28.361890	 2.710176	-7.427142	 11.729540	 27.675770	-1.426460	 12.608130	-2.093982	-1.962948	 6.573516	-1.380774	-124.096100	 33.979080	 108.650300	 57.908730	-5.724797	 15.320960	 14.104430	-9.248136	-70.843770	 18.030040	-12.211430	 20.680380	-6.580301	 5.266122	 0.000000	 0.000000	 0.000000	 0.000000	 0.000000	 0.000000	 0.000000	 11.694970	 40.190400	-4.947071	-7.775270	-50.488330	-1.310582	 124.241500	 31.991000	-108.086000	-61.060360	 0.854037	 6.507524	-34.575450	 1.700783	 23.618780	-10.379380	-28.058120	-18.703020	 15.208500	 5.323790	 0.000000	 0.000000	 0.000000	 0.000000	 0.000000	 0.000000	 0.000000
 0.463929	 1.010809	 0.632959	-9.394796	-35.315920	 179.428400	 147.026200	 85.284160	 10.058700	 37.743190	-66.539410	 42.249590	 83.203760	 66.010410	-69.418840	 1.292262	 28.425850	-2.713146	 74.575230	 83.014950	 105.120700	-34.969230	-71.460610	-41.912620	-70.312730	 57.600850	 56.721370	-1.288183	 28.361890	 2.710176	-8.480680	 9.747880	 37.518710	-0.924778	 13.315170	-2.011148	-1.854686	 4.302141	-1.599243	-123.559500	 31.569070	 107.227100	 59.892670	-2.776167	 14.479570	 9.488397	-4.878260	-56.615860	 24.895970	-13.221920	 17.008840	-6.580301	 5.266122	 0.000000	 0.000000	 0.000000	 0.000000	 0.000000	 0.000000	 0.000000	 7.970921	 31.044620	-3.328260	-5.004761	-41.751140	-0.610447	 124.659700	 29.911280	-107.100900	-59.072790	 3.983212	 6.534084	-34.431790	 1.338740	 8.862925	-13.161920	-32.767270	-20.533020	 15.208500	 5.323790	 0.000000	 0.000000	 0.000000	 0.000000	 0.000000	 0.000000	 0.000000
 0.449644	 1.098547	 0.625086	-6.827996	-30.084960	-178.828000	 172.263400	 71.018630	-16.008670	 21.991860	-54.647460	 27.028530	 70.921480	 67.594550	-56.547180	 1.292262	 28.425850	-2.713146	 141.783900	 73.039470	 43.314190	-18.756290	-59.130500	-28.025960	-63.862850	 57.409560	 50.568300	-1.288183	 28.361890	 2.710176	-6.240345	 8.481509	 35.312260	-0.159407	 12.320390	-1.726205	-0.982639	 0.581737	-1.688924	-119.978400	 26.607220	 103.367200	 60.016110	 8.581440	 5.502802	 5.159280	-0.889907	-37.901920	 32.154030	-11.751240	 13.465670	-6.580301	 5.266122	 0.000000	 0.000000	 0.000000	 0.000000	 0.000000	 0.000000	 0.000000	 1.248098	 13.100730	-1.185983	-0.790010	-25.274340	-0.615243	 123.791500	 25.798000	-104.571800	-49.202060	 11.497680	 0.688274	-44.988440	 1.000416	-5.151090	-16.274990	-33.323540	-24.249420	 15.208500	 5.323790	 0.000000	 0.000000	 0.000000	 0.000000	 0.000000	 0.000000	 0.000000
 0.444852	 1.166408	 0.598170	-2.877996	-23.248060	-175.924400	 177.750700	 55.708960	-20.280130	 14.700490	-43.688420	 21.675920	 58.135840	 67.368980	-45.544110	 1.292262	 28.425850	-2.713146	 157.599400	 57.040330	 35.298750	-11.889060	-46.986190	-19.812210	-55.518930	 61.156360	 42.954410	-1.288183	 28.361890	 2.710176	-1.862986	 6.821609	 19.885700	 1.255714	 14.629780	-1.273745	 0.071512	-7.391804	-1.611928	-116.045800	 19.099470	 98.763000	 63.418350	 23.742510	-0.687144	 11.861780	-5.215330	-14.326520	 43.503570	-13.758910	 13.734500	-6.580301	 5.266122	 0.000000	 0.000000	 0.000000	 0.000000	 0.000000	 0.000000	 0.000000	-1.703470	-2.593303	-1.046315	 0.487575	-10.912980	-0.969303	 119.879900	 19.196300	-100.121000	-43.478190	 21.388320	-0.685224	-70.362430	 2.221511	-25.672230	-14.469220	-31.877710	-25.498570	 15.208500	 5.323790	 0.000000	 0.000000	 0.000000	 0.000000	 0.000000	 0.000000	 0.000000
 0.444014	 1.231900	 0.545744	-0.469868	-13.748250	-174.129300	-179.490300	 34.942150	-22.175260	 8.590018	-29.346290	 15.579760	 37.653300	 67.545460	-28.232650	 1.292262	 28.425850	-2.713146	 167.729500	 35.945180	 32.808410	-6.390170	-30.073210	-8.996847	-33.141220	 65.602580	 21.671030	-1.288183	 28.361890	 2.710176	 0.898136	 3.267503	-4.124189	 1.140805	 8.475331	-0.863377	 0.679405	-8.818712	-1.673939	-119.375300	 12.991640	 96.530400	 56.885920	 37.888260	 9.046824	 18.785350	-7.252426	 8.766047	 50.396830	-16.945290	 14.542340	-6.580301	 5.266122	 0.000000	 0.000000	 0.000000	 0.000000	 0.000000	 0.000000	 0.000000	-1.098886	 0.462038	-1.444916	-0.084924	-10.362810	-0.918496	 124.423200	 12.737020	-97.780080	-34.349550	 19.423180	-3.245297	-96.282840	 4.176888	-44.206280	 0.389754	-20.070160	-13.094710	 15.208500	 5.323790	 0.000000	 0.000000	 0.000000	 0.000000	 0.000000	 0.000000	 0.000000
 0.448218	 1.265197	 0.489755	 0.427120	-8.173831	-173.908300	-178.273600	 19.671610	-23.304400	 4.962810	-18.037340	 8.850850	 16.694570	 67.763400	-9.450805	 1.292262	 28.425850	-2.713146	 172.952300	 20.151040	 31.918760	-3.378080	-17.043870	-1.085480	-10.369100	 65.656700	 0.397675	-1.288183	 28.361890	 2.710176	 1.142020	 1.686761	-27.361680	 0.346035	 2.219203	-0.639441	 0.244706	-6.711075	-1.653446	-120.097200	 7.189551	 93.822220	 47.687520	 46.257770	 20.487820	 24.021090	-6.992850	 25.836900	 57.585920	-18.782900	 14.781380	-6.580301	 5.266122	 0.000000	 0.000000	 0.000000	 0.000000	 0.000000	 0.000000	 0.000000	 0.266473	 6.776600	-1.857347	 0.172886	-8.733008	-0.838287	 124.271200	 7.660489	-95.070660	-30.974220	 16.093540	 1.639734	-107.080000	 6.147729	-57.061700	 5.057279	-6.813132	 0.904945	 15.208500	 5.323790	 0.000000	 0.000000	 0.000000	 0.000000	 0.000000	 0.000000	 0.000000
